<?xml version="1.0" encoding="UTF-8"?>
<svg version="1.1" viewBox="0 0 1024 1024" width="1024" height="1024" xmlns="http://www.w3.org/2000/svg">
<path transform="translate(0)" d="m0 0h1024v1024h-1024z" fill="#AEB4B3"/>
<path transform="translate(361)" d="m0 0h663v405l-2 5h-3v2l-5-1v-2l4-2v-7l-4 1-1 2-2-1-2-4h-2v-2h-2v3l-6 1v-2h-4l-1 5-2 6-5 1-3 6 1 2h4l1 5h-2l-3 3-4 3h-2l-4 4 2 1-1 2h-2l-1 2 2 1v2l4-1 1 1h12l-1-3 4-2 5 4v6l-4 2-1 3h-2v2h-2v3l-4 1-1-4 1-3h-2v-3l-5 1 1 2h2l1 3 1 2h-2l-1 3h-2l-1 2-1-5 1-2h-2v2h-10l4 2v2h-2l-1 3h-6v7h-2l2 5v9l-1 7-5 1-2-1v-3h-3v2h-2v4h3l1 6 1 8-1 2h-2l-1 4 1 2-2 2-1-1-1 2 2 1h-3v3l-2 2-2 1-1 8h-6l2 7h2l2 5h-3l4 2v10l-4 4-2-1-3 7-4 2-2 6h-2v4l-3 2-2 1-1 5h-2l1 3h-2v3h-3v2h-2l1 5h2v2l3 1-3 1-1 3h-2v3h-2l-1-2h-2v2l-2 1 3 1-2 5h-2l-1-6h-2v-2h-5l-2 2v3l-2 6-4 2-2 7v10l1 2 3 2-2 1-2-1v8h-2v2h-5l1 2-5-1-4-3v3l-2-1-1 2h-3v2l5 1 3 1-1 3-4 1-2-1-2 7h2l1 4-4 4-2 3-1 2-1 3-10 2-2-1-1 2h-2v2l-2 1-2 6-1 5-1 2 1 4-1 4-4 1-1 6h-2v6l-5 4-3 6-2-1v-2h-4v2l-6 3v-2l-6 2-2 2 2 1v2h2v7h-3l-1 3h-2l-2 6-3 2v6h-2l-1 6-3 2 2 1v2h-2v2h-2l-1 3h-2v3 4l-3 4h-2l-1 3-8 2 3 6v3h-3l-1 6-2-1-1 2-5 3-1 1h-5l-2-6-2-2 1-4 2-7 4-1 1-2 4-2 1-11 2-3 1-5 5-2 1-4-7 7-2 4-2 2-1 3h-2l-2 5-3 7h-2l-1 6-6 11-2 1-1-6 3-4v-2l-2-2 6-1v-2l-4 2 1-3h2l1-4 3-1v-3h2v-2h2l-1-6 10-9 7-8 6-12 4-14v-503l-4-14-6-11-8-9-12-8-11-4-17-2h-27l-17 1-13 3-11 6-8 9-7 12-3 10-2 110v38l1 40v122l4 14 11 11-2 1-11-6-11-9-16-13-8-7-11-10-7-8-8-10-9 7-12 11-18 11-16 8-15 6-21 5-13 2h-5v-35l3-7 7-8 6-4 4-1 30-1 8-2 7-4 6-5 5-11v-29l3-2v-31l18-4 3-2h3l2-7v-12l-7-11-13-16-10-13-1-3-1-48 11-6h4l-3-8-16-21-14-11-22-12-19-7-15-3-8-1h-24l-16 2-16 5-16 8-12 8 12 1h100l2 11-3 1h-126l-5 6h-2l-2 4-4 5-1 3h157l1 12-166 1-5 13-1 5 10-1 164 1 1 11-179 1v9l-1 9h152l26 1 1 11h-132l-46 1 4 17 170 1 2 1v11h-60l-108-1 5 13 3 5 156 2 2 4 1 7-2 1h-31l-117-1 6 16v3h40l96 1 1 4v7l-132 1v18h115v12l-97 1-1 1v6l2 5h2l3 3 10 6 10 5 11 2 14 9 8 9v3l3 1 7 8 5 9v6l-1 2-9 2h-13l-9-3 3 6 11 11 7 8 10 10 7 8 23 23 9 11 13 13 7 8 9 9 7 8 24 24 7 8 30 30 7 8 36 36 3 2-1 2-4-1-7-2-10-8-15-14-20-20-8-7-7-7-7-8-72-72-7-8-10-9-16-17-33-33-5-8-2 3-3 6-3 13h2l3 12 11 11 3 6 11 15 1 6 6 2 5 8 5 3 3 7 4 8 4 4 5 3 2 4 4 2 2 9h2l3 4v2h2v3l2 1 5 8 1 7 6 3 4 5 4 6 5 4 2 7h2l1 8h2l3 6v3l3 1 4 6v2h2l3 5 1 7 4 2 2 4-1 8-1 3 1 10-3 3-1 4 7 4-2 1 1 4-4 5h-1l-1 11-2 8-1 2 2 1-3 3-7 3h-4v-2l-5-1 2-3h6v-2l1-2-2-1 3-3h2l1-3 4-10 1-4-2-1 1-5 1-13-3-1v-11l-3-11-3-7-9-17h-2l6 11 8 16 1 8-3 5v7l-3 3-2 11-2 7-1 1-7 1-3 5-5 1-1-3 1-3-1-1v-9h2v-2l6-3 3-7-1-5-4-2v2h-2l-1 6-8 5h-2v2h-2v4l-5 1-4-2-3 1-5-3-7 1-5-2-2-1v2l-7 1 1 2-9 1-2-1-1 3-3-2v-2h-3l-2 2v-3l-4 1-2 5 1 4v4 3l2 1h-2l-1 4h-6l-3-7v-2h3v-2h-2l1-3h2l-3-9-7 3-1 2h-6l-1-3-11 1v-4h-2v-5h-3l-2 11 4 6 4 2 3 1v2l-6 2-3-1-1-4-4-4-3-5v-7l3-6v-6h-2v8l-3 6v3l-4-1-1-3 4-9 3-8h2l2-10 1-4v-3l9-10 6-12 1-4v-199l-19-8-28-15-11-8-13-10-15-14-11-12-13-18-9-16-6-15-7-27-3-20v-28l3-20 7-30 6-15 4-8 8-15 9-11 5-8 4-2 4-6h3l2-4 12-10 15-10 21-12 16-8 3-1-10-3-5-4-5-1-17-1h-58l-16 5-8 4-10 9-7 11-5 10-2 7-1 11h-1l-1-5-5 3-3 3v-3l-1-3-5 5-5 2-1 2-5 2-2 2 4-1-1 3-6 2-3 3-5-1-1 2-1-3h-4l-1 2-3-1v-2l-2 1 1 2-6 1v-3l-3-2-1-4-1 2 1-4 4-3-1-4h2v-4l7-1-1-5 1-4h2l-1-3h2v-2l7-2v-2l-2-1v-4l-2-1 1-4h3l1-6 3-2v-3l-5-1-5-6 2-6h3l1-2 1-1 2-1 2-3 5 1v3l1-3h2l-3-6 2-3-2-5v-3l-3-1 2-4 5-1 2 1-1-3h2l1-4 3-1v-2l4-2v-2h3v-2l3 1v-6h4l1 2 2-1 1 2 3-9 4-2-2-3h2v-2l6-3h2v-3h2v2l3-1 2-3 7 2 4-1-3-3v-5h2l2-6 1 2 5 2v-3l4-3 2-10 4-1-1-3 3-5 1-5 2-1 4-6h3l-2-5 7-1 4 3v-2h2v-9l5-2h5v-2l-2-1h5l1-3 6 1v-2h2v-3h-4v-2h-2v-2l-3-1h2v-2l-4-1-4-5 1-5-2-7v-2l-1-3 7-2 2 1v2h-2l3 3 3 1v2h2v-2l5 2 1 2-4-1 1 3-2 3h-2v2l9 1-3 1 1 6h2l-1 4 2-2 3-8 2 2 2-3 1 1 1-2 8-1 3-2 1-4-1-1-7-3 1 6-5 1v-3-3h-2v2l-5-1-1-2 4-2 3-1 1 1 1-3-1-2h-2l-1-3 2-3 4-1z" fill="#D0D0C8"/>
<path transform="translate(697,186)" d="m0 0h27l17 2 12 5 11 7 9 10 7 14 3 11v503l-5 17-6 10-9 10-8 7-9 5-16 4-12 1h-16l-37-1-13-4-9-7-17-16-34-34-7-8-30-30-7-8-24-24-7-8-9-9-7-8-9-9-9-11-27-27-7-8-10-10-7-8-6-6-2-6 10 3h13l9-1v-8l-6-10-6-7-2-1-4-7-8-7-10-6-14-3-12-7-8-5v-2h-2l-3-5v-6l2-2h97v-12l-34 1h-34l-47-1v-18l3-1h129l-1-11h-96l-40-1-5-14-1-5h148l1-1-2-9-156-2-5-8-3-7v-4h108l60 1v-11l-172-1-3-9-2-9 1-1 58-1h119v-10l-178-1v-9l1-9 5-1h174l-1-2v-9h-174l1-8 5-11h166l-1-12h-157l1-5 6-7h2l2-4 3-3h126l2-1-1-10-78 1h-22l-13-1 5-5 15-9 14-6 17-4 10-1h24l19 3 20 7 16 8 12 7 14 12 14 19 2 4v4l-8 3-6 3 1 48 3 6 11 13 13 17 4 7v12l-3 7-9 4-14 3v30l-4 2 1 11v18l-6 12-10 8-5 2-6 1-30 1-7 3-8 7-3 5-1 4-1 35 24-4 21-6 20-9 20-12 14-12 8-7 3-1 4 6 9 10 4 5 8 7 10 9 14 11 11 9 12 6-11-11-4-14v-122l-1-40v-38l2-110 4-12 9-14 7-7 10-5 13-3z" fill="#192534"/>
<path transform="translate(451,185)" d="m0 0 18 2 27 5 18 5 20 9 13 8 19 13 13 12 7 8 4 4v2h2l13 20 5 8v2h2l4 8 4 11 4 10 1 8h3l1-3v-21l-1-3h-2l-1-5-5-18v-13l2-10 5-7 2-4h4l4-4v46l-1 60v38l1 40v122l4 14 11 11-2 1-11-6-11-9-16-13-8-7-11-10-7-8-8-10-9 7-12 11-18 11-16 8-15 6-21 5-13 2h-5v-35l3-7 7-8 6-4 4-1 30-1 8-2 7-4 6-5 5-11v-29l3-2v-31l18-4 3-2h3l2-7v-12l-7-11-13-16-10-13-1-3-1-48 11-6h4l-3-8-16-21-14-11-22-12-19-7-15-3-8-1h-24l-16 2-16 5-16 8-12 8 12 1h100l2 11-3 1h-126l-5 6h-2l-2 4-4 5-1 3h157l1 12-166 1-5 13-1 5 10-1 164 1 1 11-179 1v9l-1 9h152l26 1 1 11h-132l-46 1 4 17 170 1 2 1v11h-60l-108-1 5 13 3 5 156 2 2 4 1 7-2 1h-31l-117-1 6 16v3h40l96 1 1 4v7l-132 1v18h115v12l-97 1-1 1v6l2 5h2l3 3 10 6 10 5 11 2 14 9 8 9v3l3 1 7 8 5 9v6l-1 2-9 2h-13l-9-3 3 6 11 11 7 8 10 10 7 8 23 23 9 11 13 13 7 8 9 9 7 8 24 24 7 8 30 30 7 8 36 36 3 2-1 2-4-1-7-2-10-8-15-14-20-20-8-7-7-7-7-8-72-72-7-8-10-9-16-17-33-33-5-8-2 3-3 6-3 13h2l3 12 11 11 3 6 11 15 1 6 6 2 5 8 5 3 3 7 4 8 4 4 5 3 2 4 4 2 2 9h2l3 4v2h2v3l2 1 5 8 1 7 6 3 4 5 4 6 5 4 2 7h2l1 8h2l3 6v3l3 1 4 6v2h2l3 5 1 7 4 2 2 4-1 8-1 3 1 10-3 3-1 4 7 4-2 1 1 4-4 5h-1l-1 11-2 8-1 2 2 1-3 3-7 3h-4v-2l-5-1 2-3h6v-2l1-2-2-1 3-3h2l1-3 4-10 1-4-2-1 1-5 1-13-3-1v-11l-3-11-3-7-9-17h-2l6 11 8 16 1 8-3 5v7l-3 3-2 11-2 7-1 1-7 1-3 5-5 1-1-3 1-3-1-1v-9h2v-2l6-3 3-7-1-5-4-2v2h-2l-1 6-8 5h-2v2h-2v4l-5 1-4-2-3 1-5-3-7 1-5-2-2-1v2l-7 1 1 2-9 1-2-1-1 3-3-2v-2h-3l-2 2v-3l-4 1-2 5 1 4v4 3l2 1h-2l-1 4h-6l-3-7v-2h3v-2h-2l1-3h2l-3-9-7 3-1 2h-6l-1-3-11 1v-4h-2v-5h-3l-2 11 4 6 4 2 3 1v2l-6 2-3-1-1-4-4-4-3-5v-7l3-6v-6h-2v8l-3 6v3l-4-1-1-3 4-9 3-8h2l2-10 1-4v-3l9-10 6-12 1-4v-199l-19-8-28-15-11-8-13-10-15-14-11-12-13-18-9-16-6-15-7-27-3-20v-28l3-20 7-30 6-15 4-8 8-15 9-11 5-8 4-2 4-6h3l2-4 12-10 15-10 21-12 16-8 6-1v-2l16-3 9-3 16-2z" fill="#D0D0C8"/>
<path transform="translate(297,186)" d="m0 0h58l17 1 7 2 3 3 13 3-3 2-9 4-21 11-16 10-11 8-10 8-2 3-4 2-4 6h-3l-2 5-10 13-5 8-8 16-6 15-7 30-3 20v28l4 24 7 26 7 16 9 15 13 17 11 12 14 13 12 9 14 9 14 8 19 9 10 4 1 1v199l-4 10-6 10-12 12-10 7-10 4-16 2h-48l-14-4-12-6-10-9-7-8-5-10-4-18v-503l4-11 7-13 10-11 9-6 11-4z" fill="#192534"/>
<path transform="translate(697,186)" d="m0 0h27l17 2 12 5 11 7 9 10 7 14 3 11v304l-3 4v-73h-2l-1 10-2 6-12 6-2 6-5 2v2h-2l-1 9-6 2-5-4-5 1v-2h-2v2l-2-1 1-2-3 1-2-3-6-1h-3-3v-5l-4-1-5-2-1-4-4-2v-2l-2-1v-3l-6 2-1-3-4-1-3-5-2-7-3-3h-2l-3 7h-2l-1-4-4-5v-2h-7l-3-5-1 5 1 4-3 3-1 3 2 1v2 3l-4 2-3 6-3 1-1 3-1 12h-1l-1-41-1-62v-78l1-29v-65l2-13 1-6 2-5 6-7 8-5 11-4 6-1z" fill="#5D6B7A"/>
<path transform="translate(1,763)" d="m0 0 4 2-2 4 2 1 1 3h2l1 5 2 1-1 2h2l-1 9 4 4 3 1v2l5 2-1 3-1 1 1 2-1 9h2v-5l4 1 6-2 1 2 2-1-2 6h-2v5l3 5 7 2 2 1v2l7 3v2l4-1v7h3l-1-6 5-1-2 2 8-1v3 4h-3v7h-2l-1 4v-4l-4-1-1-3h-2l-1 6 2 1-3 2 3 1 1 6-1 3h3v2h-2v2l5-1v2l5-2 4 3 2 6h6l3 1 1-2 3 1-1 3 3 3 7 2 2-1-2 6h3l2 5h8l1 7-2 7h-1l-1-5-2 3-1 3 1 4h6v4h2l1-2 5 2 1-3 1 3h3v2h-3v3h3l-2-2 5 1 2 2-1 2 7 1-1 3 2 1v3l2 2v7l3 1v3h2l1-3 1 3h2l1-2 3 5h-2v2l6-4 4-1 5-1 1-1 2-1 6 3 4 1v3l6 1 2 3v4l-4 1 3 7h2l3-4 3 1v4h4v2h-5v2l-4 2v3l5-2 2 3 3 4v2l6 1v2l4 1v4l4 2 1 2 6-5 2-4 3 1 1 4 10 2 1 3h-3l2 2 2 1v4l-1 3h-2l-1 2-1 1 4 1-3 1h4v2h4l3 3h3v2h8l2-1 1 4 2-1 2-5 2 2 5-3 8 3 2 5-3 2h-273v-160l1-53z" fill="#909AA1"/>
<path transform="translate(246,249)" d="m0 0h1l1 11 1 476 4 18 7 13 11 11 12 7 12 4 5 1h48l16-2 12-5 4-3h2l1 3h-2l-1 4-2 3h-2v3l-4 1v2l-5 5h-2l-1 4-4 5-3 1-4 4-7 6-10 5h-2l-1 3-5 2-3 3-7 2-8 1-1 2-6-1-1 2-11 4-6 2-4-1v-2h-2v2l-10 1h-7l-10-1h-9l-4 1h-7v2l-5 1-1 2h-2l-2 2-5 1-4 1-5 2-4 4v-2h-2l-1 2v-2l-3-1v-4l-7-3 1 3-5 1v-5l-1-3-2-1h2v-2l-3-1 2-6 3-1v-4l3 1-1-6 2-4v-8l3-5 4-11 1-4 5-11 4-9 2-4 2-1 1-10 3-13 3-12 3-9v-12l-1-8 2-2 3-28v-3l1-16 1-22 2-5v-7-3l1-17 1-4v-47l1-32v-110l2-10 2-17v-20l1-7-2-31v-34l-1-7v-11l3-12 6-9z" fill="#909AA1"/>
<path transform="translate(671,350)" d="m0 0 2 1-1 2h5l5 4 5 2v2l5 2v3l4 1-3 4 3-1 4 1h4l2 4h3l1 3v1l1 2h-2l2 5 2-1-1 4h2v4l2 1 2 2 6 2-2 1v2h3l1-2 2 4 5 3v2l3-1 4 5 6 1 3-1 1-5 1 2h2v2h2v-2h2v-2l5-1 1-3 2-1 1-3h1l1-2h2l5-8 1-6-2-1 2-2 2-4 1 3 1 50v41h-2l-1 10-2 6-12 6-2 6-5 2v2h-2l-1 9-6 2-5-4-5 1v-2h-2v2l-2-1 1-2-3 1-2-3-6-1h-3-3v-5l-4-1-5-2-1-4-4-2v-2l-2-1v-3l-6 2-1-3-4-1-3-5-2-7-3-3h-2l-3 7h-2l-1-4-4-5v-2h-7l-3-5-1 5 1 4-3 3-1 3 2 1v2 3l-4 2-3 6-3 1-1 3-1 12h-1l-1-41-1-78 3-2 1-4-1-3 4-1 1 1v-3l3-1-1 4 3 1 4-9 4-7h2l1-5h4l-4-3h4z" fill="#445363"/>
<path transform="translate(326,326)" d="m0 0h1l1 14 152 1 26 1 1 11h-132l-46 1 4 17 170 1 2 1v11h-60l-108-1 5 13 3 5 156 2 2 4 1 7-2 1h-31l-117-1 6 16v3h40l96 1 1 4v7l-132 1v18h115v12l-97 1-1 1v6l2 5h2l3 3 10 6 10 5 11 2 14 9 8 9v3l3 1 7 8 5 9v6l-1 2-9 2h-5v-2h2v-14l-1-5-8-3-8 1-1 1 6 1v1h-17l-3 1-9-2-12-6-10-7 2 4-5-2-1-4-4-1-9-7v-3l-2 3-4-5-6-8-2-1-2-6-2-8 1-8-1-3 1-5-1-2 2-9-2-8-3-4-4-7-9-17-2-4-2-5-3-20-4-9-1-21 3 2v-8l-2-1v-2h-2l1-7 4 1-1-3v-3l1-5 2-7z" fill="#AEB4B3"/>
<path transform="translate(417,564)" d="m0 0 4 4 7 8 13 13v2l4 2 19 19 7 8 16 15 7 8 72 72 7 8 17 16 20 20 8 7 9 7 9 1 5 3 8 7 8 4 8 2 37 1h16l17-2 14-4-1 4-4 2-2 4-4 6-4 3h-2l-1 3-7 6-5 2-2 4-16 8-12 5-2 1-2-1v2l-6 2-4 1-7 1-8 3-15-3-4-3v2h-7l-3-2-2 1v-2l-5-2-9-3v-2h-3v-2l-3-1v-2l-5-1-6-7-2-3v-3h-2l-5-10-2-1-1-5-3-1-2-6-6-9-5-8-4-4-1-7-3-1-4-7v-3h-3l-8-13-1-5-3-1-6-9-4-5-5-3-4-8-7-8-5-5v-3h-2l-7-9-4-4-5-7-5-5-5-7-3-5-8-10-7-6-5-4-3-2-5-8-7-7-7-4-2-6-10-8-5-8-3-3-3-6v-11z" fill="#909AA1"/>
<path transform="translate(671,350)" d="m0 0 2 1-1 2h5l5 4 5 2v2l5 2v3l4 1-3 4 3-1 4 1h4l2 4h3l1 3v1l1 2h-2l2 5 2-1-1 4h2v4l2 1 2 2 6 2-2 1v2h3l1-2 2 4 5 3v2l3-1 4 5 6 1 3-1 1-5 1 2h2v2h2v-2h2v-2l5-1 1-3 2-1 1-3h1l1-2h2l5-8 1-6-2-1 2-2 2-4 1 3v32l-3 7-2 5h-3l-1 4-1 2h-3l-1 6h-4v2h3l-1 6-3 3-1 4h-2l2 10-3 2-2-1-2 5-8 1-2-6-5 1-2-4-5-5-2-4-3 1-1-2-3 3v-2l-2-1v-2l-2-3-5-1 2-2-3-2-5-7-3 1-2-2v-3l-5-1-1-3-3-1-4-2v-2l-4-2h-3l-5-1-2-1-1-3-5 2v-2l-4-1-3 3v-2h-2l-1 3-1-1-2 3-1 1v2h-2v2h2l1 3h-2v2l-4 1-1 7h-2l-1 11h-1l-1-45v-16l3-2 1-4-1-3 4-1 1 1v-3l3-1-1 4 3 1 4-9 4-7h2l1-5h4l-4-3h4z" fill="#4F5C6A"/>
<path transform="translate(734,187)" d="m0 0 10 2 9 4 11 7 9 10 7 14 3 11v74h-1l-1-61-2-3-1-13-3-6-1 1 1 9 1 4-2 2-4 9h2l-2 9 4 2-4 3h-2l-2 4-1-4h-2l-1 4 3 1-2 1v2h3l-1 5-4 1v2l4 2h-2v2l-4-1-1 3-3 4h-2l-1 2-1-4v-3l-8 2-1 6-2-2-3 1-2-7-1-4h-1v3h-2l-1-4-4 1-2-1v-2l-6-2v-2l-6-1v-2h-2l-1 2v-2h-3l-1-6-2-1 1-8-3-1-1-2h-2v-3l-3-2-1-1-1-2-6 1v-5h4v-3h2l-1-4-5-1 2-1v-7l-3-3 2-5h3v-4l5-2h2l-2-4 3-3 4-1v2l3-2-1-6h5l3-3 2-1 5 1h13v2l4-3 3 1 1 3 7 3v1l6 2 1 3h4l4 4v2h2l2 2 1 4h2l2 2-3-7-9-10-19-10-20-4-13-1v-1z" fill="#6C7987"/>
<path transform="translate(246,608)" d="m0 0h1l1 8 1 120 4 18 7 13 11 11 12 7 12 4 5 1h48l16-2 13-5 1 2h-2l-2 4-5 5-5 2-2 5-6 4h-2v2l-7 3-10 5h-2l-1 2-17 5h-7l-9 2-12 1-9 1-2 1v-2l-16-1-13-3-7-2-8-5-1-5-3-17-1-14 2-3 2-15v-15l2-5 2-20 1-19 2-13 1-30 1-14v-20l1-7 2-2z" fill="#7B8893"/>
<path transform="translate(509,660)" d="m0 0 5 3 52 52 7 8 17 16 20 20 8 7 9 7 9 1 5 3 8 7 8 4 8 2 37 1h16l17-2 9-2v3l-10 7-5 5-4 3-7 4-5 2v2l-7 2-9 3-12 2-2 1h-7l-8 2-5-1-21-3-16-6-11-8-2-1-1-6h-2l-1-5-3-1-5-6-1-5-3-1-3-6-4-4-5-8h-2l-6-10v-2l-4-2-3-2-3-5-4-8-2-2-2-5-8-10-3-5-7-6-8-11-9-8-5-9-4-4-1-3-5-5-1-3z" fill="#7B8893"/>
<path transform="translate(451,185)" d="m0 0 18 2 27 5 18 5 20 9 13 8 19 13 13 12 7 8 4 4v2h2l13 20 5 8v2h2l4 8 4 11 4 10 1 8h3l1-3v-21l-1-3h-2l-1-5-5-18v-13l2-10 5-7 2-4h4l4-4v46l-1 60v38l1 40v106h-1l-1-44h-1l-1-35-2-1 1-6-1 2-1 12h-1l-2-16v-8h-2v-3l3-3-2-1 1-4 4-13 1-6v-36l-3-17h-3l-3-12v-9l-3-6-7-15-9-19-7-10-5-9-11-12-6-7-5-5-7-5v-2l-5-2-8-6-5-6-6-2-5-3-2-2-7-5-21-7-16-4-12-2v-2l-12 1-14-2h-8v-2l-20 3-13 3-9 3-9 2-5 2-3-1 9-4h3v-2l16-3 9-3 16-2z" fill="#AEB4B3"/>
<path transform="translate(364,447)" d="m0 0h1v17h115v12l-97 1-1 1v6l2 5h2l3 3 10 6 10 5 11 2 14 9 6 6v2l-14-1-9 4h-12l-7-2-5-3-7-8-7-5v-2l-2-1-6-9-2-2-7-14-1-19 1-2h2z" fill="#6C7987"/>
<path transform="translate(251,757)" d="m0 0 4 1 6 10 10 10 12 7 12 4 5 1h48l16-2 4-1v3l-5 2-1 3-16 9-18 4-20 3h-5v-2l-12 3-18-5v-2l-5-1v-2l-5-2-5-4-6-11-2-3v-23z" fill="#5C6A7A"/>
<path transform="translate(586,737)" d="m0 0 4 2 20 20 8 7 9 7 9 1 5 3 8 7 8 4 8 2 37 1h16l18-2 2 2-4 3h-2v2l-9 3-9 4-22 4-4 1-19 1-8-1v-2h-10l-10-4-8-5-9-7-5-5-7-11-7-6-7-11-4-4-5-9-4-4z" fill="#5D6B7A"/>
<path transform="translate(393,280)" d="m0 0h111l1 12h-138l-27-1 5-10z" fill="#CDCEC6"/>
<path transform="translate(353,311)" d="m0 0h154l1 11h-177v-1l48-1 4-7-30-1z" fill="#D0D0C8"/>
<path transform="translate(373,250)" d="m0 0h115l2 11-3 1h-97l-28-1 5-6h2v-2z" fill="#A9B0B0"/>
<path transform="translate(339,341)" d="m0 0h141l26 1 1 11h-120l-37-1v-1l30-2 15-2 5-1-2-1 10-1v-1l-69-1z" fill="#CECFC7"/>
<path transform="translate(410,402)" d="m0 0 91 1 2 4 1 7-2 1h-31l-114-1v-1l35-1 2-4h2l1-3-31-1v-1z" fill="#CECEC7"/>
<path transform="translate(451,185)" d="m0 0 18 2 27 5 18 5 20 9 13 8 19 13 13 12 7 8 4 4v2h2l13 20 5 8v2h2l4 8 4 11 4 10 1 8-4-1-2-4-4-10-12-24-6-9-5-9-11-12-6-7-5-5-7-5v-2l-5-2-8-6-5-6-6-2-5-3-2-2-7-5-21-7-16-4-12-2v-2l-12 1-14-2h-8v-2l-20 3-13 3-9 3-9 2-5 2-3-1 9-4h3v-2l16-3 9-3 16-2z" fill="#A8AEAF"/>
<path transform="translate(564,715)" d="m0 0h2l7 8 14 13v3l3 5 4 6v3l3 1 7 11 5 5 6 7 6 9v2l4 2 9 7 13 7 14 2 4 1 6 1 17-1 14-3 12-2 9-4 4-2 4 1-5 4-3 1-1 2-8 2-8 3-5 1v1l-11 2-26 1h-12v-2l-9-2-12-6-5-3v-2l-4-2-9-9-3-6-9-12-6-5-3-5v-2h-2v-3l-3-1-4-5v-2l-3-1-9-16-6-8-1-5-2-1z" fill="#6C7987"/>
<path transform="translate(246,722)" d="m0 0h1l2 14 4 18 1 5h-3v23l8 14 9 6 2 2 3 1v2l12 2 8 2 10-2v2l25-4 18-4 16-9 6-6 3-2-1 4-9 8-6 4-9 3v2l-5 2-15 3-7 2-12 2-22 1-14-2-2-2-11-4-8-6-4-9-3-7-1-13v-33l1-9z" fill="#6C7987"/>
<path transform="translate(370,464)" d="m0 0h110v12h-98v-2l-3-1-3-4v-3l-6-1z" fill="#929BA2"/>
<path transform="translate(331,369)" d="m0 0 2 2 170 1 2 1v11h-60l-101-2v-1h42l1-2h3l1 2 10-1 1-2 6-2 1-2h4 4l3 3 8 1v-2h4l1 2 4-2v-2l-105-1z" fill="#C9CAC4"/>
<path transform="translate(492,708)" d="m0 0 8 4 4 5 4 6 5 4 2 7h2l1 8h2l3 6v3l3 1 4 6v2h2l3 5 1 7 4 2 2 4-1 8-1 3 1 10-3 3-1 4 7 4-2 1 1 4-4 5h-1l-1 11-2 8-1 2 2 1-3 3-7 3h-4v-2l-5-1 2-3h6v-2l1-2-2-1 3-3h2l1-3 4-10 1-4-2-1 1-5 1-13-3-1v-11l-3-11-3-7-9-17-3-3-4-11-5-5-4-9-6-7v-2l-2-1z" fill="#D0D0C8"/>
<path transform="translate(396,434)" d="m0 0h100l1 4v7h-98v-1l10-1-1-7-12-1z" fill="#B4B9B7"/>
<path transform="translate(374,475)" d="m0 0 9 1-1 2v6l2 5h2l3 3 10 6 10 5 11 2 14 9 3 4-6-2-5 1h-18l-7-2-8-6-5-3-12-14-5-10 1-5z" fill="#5C6A7A"/>
<path transform="translate(341,402)" d="m0 0 3 1 20-1h46v1l-12 1-2 4h-2l-2 5-38 1 6 16-1 4-3-3-1-4-6-9h-2l-3-9z" fill="#ADB3B2"/>
<path transform="translate(635,329)" d="m0 0h1v47l1 40v106h-1l-1-44h-1l-1-35-2-1 1-6-1 2-1 12h-1l-2-16v-8h-2v-3l3-3-2-1 1-4 4-13 1-5 2-1-1-39-1-7v-10l2-3z" fill="#A4ABAC"/>
<path transform="translate(452,225)" d="m0 0 16 1 18 4 20 8 18 10 11 9 6 5 14 19 1 3-1 3-7-1 1-2-3-9-9-11-9-7-5-5-19-10-18-7-16-3-7-1h-44l-1-2 21-3z" fill="#5B6979"/>
<path transform="translate(343,310)" d="m0 0h22v1l60 1v1h-42l-1 4-2 2 7 1v1l-53 1-4 1-4-3 1-6 3-3 1 1 12-1z" fill="#ADB3B2"/>
<path transform="translate(278,784)" d="m0 0 5 1 12 4 5 1h51l7 1-2 3-6 2-32 3h-20l-9-2-9-5v-2h-2l-1-4z" fill="#4F5C6A"/>
<path transform="translate(609,999)" d="m0 0h2v2l4 1 4-1-1 5h-2l1 4 2 1-1-3 7-2 1-4 1 3h3v2l3 1 1 11-2 5h-17l-4-3 2-1v-2h-4l-7 1-4-1-1-5 1-4h-2l1-2 4 1v5h5v-2l-1-4h2l2-1-2-5z" fill="#A5ADB0"/>
<path transform="translate(266,364)" d="m0 0h1l2 25 4 22 7 26 11 23 8 12 9 11 11 12 10 9 8 7 12 9 18 11 19 10 13 5 5 1v10h-1v-8l-5-1-19-7-24-14-11-7-17-13-19-19-13-17-6-9-11-23-5-14-7-36z" fill="#8F99A0"/>
<path transform="translate(734,187)" d="m0 0 10 2 9 4 11 7 9 10 7 14 3 11v74h-1l-1-61-2-3-1-13-8-16-6-8-7-6-16-8-20-4-13-1v-1z" fill="#AAB0B1"/>
<path transform="translate(465,816)" d="m0 0h5l4 6 5 1v-5l3-1h9l7 1-2 3 2 2-10 3-1 5-3 2-4-1-2 3-4 1-5-3-1-2-3-1-1-2-5 2-3-3 1-4 4-2 2-4v2h2z" fill="#D0D0C8"/>
<path transform="translate(345,281)" d="m0 0h48v1h-7v2h-3l1 4 1 3-8 1-37-1z" fill="#ACB2B2"/>
<path transform="translate(392,433)" d="m0 0h8v1l11 1-3 1 4 8-13 1h-15l-16-1 4-5-2-1v-3h-9v-1z" fill="#AAB1B0"/>
<path transform="translate(362,448)" d="m0 0 2 2v8l-1 1v5l-2 1 3 1-2 1 1 12 6 12 3 4 6 9 1 3 4 2 8 7 5 4 3 3 9 1h10l8-4 4 1-4 1v2l-13 5-10-1-7-3v-2h-2v-2l-5-1-4-4-5-3-1-2-3-2-4-7v-2h-2l-7-11-3-7-1-6-2-7 2-13 2-4z" fill="#909AA1"/>
<path transform="translate(542,742)" d="m0 0h2l5 6v2h2l4 6 3 8 4 3 1 6h2l6 11 5 12 4 6 3 3 3 7v2h2l2 4 4 4v3h2l3 7 2 2 8 3 1 3 3 1-3 1h-5v-2h-2l-8-8-2-4v-3l-4-1v-3l-3-1-10-19-5-5-4-12-3-7-4-4-4-5-3-7-6-7-5-10z" fill="#A4ADB0"/>
<path transform="translate(488,403)" d="m0 0h13l2 4 1 7-2 1h-31v-1l7-1 1-2 3-3-4-1-3 1v-2h-6l-2 2v-2h-2l-1 2h-2l-1-2-5 2-4-2v-2z" fill="#ADB3B2"/>
<path transform="translate(435,840)" d="m0 0 2 1-1 2 2 1v3l-5-1v2l-6 5-3 2v1l4 2h-4l-1 2-8-1-1-3 4-2-9 1-1-1-2 4v3l-5-4v-2h-7v-2l-3 1-5-2-1-3 6-1 4-1 5-1 8 1 2 4 9-2 4-1 2-2h4 2v-4z" fill="#D0D0C8"/>
<path transform="translate(586,505)" d="m0 0 4 2 10 10 7 8 22 18 7 6 2 1-1-9 2 4 2 7 11 11-2 1-11-6-11-9-16-13-8-7-5-6-1-4-12-13z" fill="#879299"/>
<path transform="translate(361,466)" d="m0 0 3 1v7l5 11 4 5 4 7 13 14v2l4 2 6 5 9 1 15-2 8-4 8 5v2l-14-1-9 4h-12l-7-2-5-3-7-8-7-5v-2l-2-1-6-9-2-2-7-14z" fill="#7A8792"/>
<path transform="translate(409,374)" d="m0 0h4 4l3 3 8 1v-2h4l1 2h4v2l7-1-1 3-5 1h-37l-57-1v-1h42l1-2h3l1 2 10-1 1-2 6-2z" fill="#CDCEC6"/>
<path transform="translate(345,18)" d="m0 0 5 1 1 3 8 1v2l4-2v-5l5 1 4 1 1 3-2 1-1 5h-3-8l-1 3-4 2-1-1-4 9-2-2 2-3h-2l-1-7-6-1v-2l3-3v-3h3z" fill="#B0B6B4"/>
<path transform="translate(515,845)" d="m0 0h2v2h2l-1 2 3 1-2 4-4-1-1-2-1 3v7l-4 3-5 1-3-3-3 3v-3l-4-1-7-2-1 2-2-1v5h4v2l-5-1-3-2-3-5v-3h2v-4l2 1 3 1v3l5-1 4-1 1-2 1 3 4 2 3-1 1-3 5-1 3-4h2v-2h2z" fill="#CFCFC8"/>
<path transform="translate(381,250)" d="m0 0h7v1l33 1v1h-7l-1 3v-3h-3v7h-31l-3-3 2-4z" fill="#8F99A0"/>
<path transform="translate(781,358)" d="m0 0h1l1 148v33l-3 4v-47z" fill="#3F4C5B"/>
<path transform="translate(604,745)" d="m0 0 6 2 25 25 3 2-1 2-4-1-7-2-10-8-3-3v-3l-3-1-3-4-1-6-2-1z" fill="#AEB4B3"/>
<path transform="translate(462,670)" d="m0 0 3 1 5 5 2 5 4 1v3l3 1 2 5 5 7 2 5 4 4 4 9 7 8 3 8 5 5 3 9-1 2-5-6-4-9-9-12-8-13-4-8-2-6h-2l-5-9-7-6-4-6z" fill="#AEB4B3"/>
<path transform="translate(697,186)" d="m0 0h27l10 1v1l-13 1 7 1v1l-24 1-6 1h-14l-9 1v-2l2-1v-2h3v-2z" fill="#788591"/>
<path transform="translate(375,404)" d="m0 0h23l-2 4h-2l-2 5h-31l3-1 1-3 6-3z" fill="#ADB3B2"/>
<path transform="translate(380,477)" d="m0 0 2 1v6l2 5h2l3 3 10 6 10 5 11 2 8 5-2 1-10-4-4 1h-9l-4-2-5-5-3-2v-2l-5-2-5-5-4-5-1-6z" fill="#4D5A68"/>
<path transform="translate(413,814)" d="m0 0 1 2h2l2 11v5l3-1v2l4 1-6 3h-6v-2l-4 1-5-2v-4l3-1-1-7h2l-1-3z" fill="#D0D0C8"/>
<path transform="translate(446,577)" d="m0 0 7 6 12 13 21 21 9 11 3 4h-3l-3-1-1-3-5-4v-2h-2l-4-6-10-9-2-1v-2h-2l-4-5-2-1-3-6v-2l-4-1-3-4v-3h-2z" fill="#99A1A5"/>
<path transform="translate(469,250)" d="m0 0h19l2 11-3 1h-15v-1l9-1 1-3h-2l-1 2-1-4-2 3-1-3h-2l-1-2h-3l-3 3h-8l-3-3-3-2z" fill="#9FA7AA"/>
<path transform="translate(355,373)" d="m0 0h10l-3 3-3 1-1 2-2-2-6 3v1l51 1v1h-64l-1 2-3-4-1-4-2-1-1 3 1-5h4l1 4 4 1 2-3h6l-1-2z" fill="#9BA4A8"/>
<path transform="translate(779,245)" d="m0 0 3 1v50l-1 37h-1l-1-15z" fill="#6D7A88"/>
<path transform="translate(331,11)" d="m0 0 4 1v2h-2l3 3 3 1v2h2v-2l5 2 1 2-4-1 1 3-2 3h-2v2h2v2l-5 1-3-2 3-1v-2l-3 1-4-1-2-5-1-4v-2l-1-3z" fill="#CECEC7"/>
<path transform="translate(446,464)" d="m0 0h34v12h-10l-2-1-2-3-2-6h-12l-6-1z" fill="#808C96"/>
<path transform="translate(520,247)" d="m0 0 5 2 10 8 6 5 14 19 1 3-1 3-7-1 1-2-3-9-9-11-9-7-5-5-3-2z" fill="#576575"/>
<path transform="translate(609,999)" d="m0 0h2v2l4 1 4-1-1 5h-2l1 3-4 2h-2l2 2-2 1 2 4h-4l-7 1-4-1-1-5 1-4h-2l1-2 4 1v5h5v-2l-1-4h2l2-1-2-5z" fill="#A4ADB0"/>
<path transform="translate(266,364)" d="m0 0h1l2 25 4 22 7 26 11 23v4l-3-4-11-24-4-11-7-36z" fill="#65727F"/>
<path transform="translate(361,434)" d="m0 0h33v1l-6 1v5l-3 1v2h-17l4-5-2-1v-3h-9z" fill="#8E989F"/>
<path transform="translate(349,186)" d="m0 0h6v1l11 1v1l-51 2-22 2-6 1 2-3 10-3 42-1z" fill="#576575"/>
<path transform="translate(761,776)" d="m0 0 3 1-3 8h-2l-2 5-3 7h-2l-1 6-6 11-2 1-1-6 3-4v-2l-2-2 6-1v-2l-4 2 1-3h2l1-4 3-1v-3h2v-2h2l-1-6z" fill="#CCCCC5"/>
<path transform="translate(740,194)" d="m0 0 5 1 15 8 8 8 5 9-2 2-1-3h-2l-2-3-1-3h-2v-2l-4-2v-2h-4l-2-3-6-1-3-3-4-2z" fill="#5D6B7B"/>
<path transform="translate(920,537)" d="m0 0 5 3 1 2 3 1 4 4-1 3h-2v2l-5 1v2h2l-2 4-1 5-1 3v-2l-3 1-1-1 1-12 2-4v-3l1-5-3-1z" fill="#B1B6B5"/>
<path transform="translate(734,187)" d="m0 0 10 2 9 4 5 3-2 2h-7l-8-4-20-4-13-1v-1z" fill="#8E98A0"/>
<path transform="translate(364,402)" d="m0 0h46v1l-35 1-3 3-6 2-1 3-6 1-2-1-2-9z" fill="#909BA1"/>
<path transform="translate(539,1012)" d="m0 0 6 2 4 2 5 2 2 1v5h-21l-2-2 4-1v-2h2l1 1 1-1-5-1 3-1-1-4z" fill="#A5ADB0"/>
<path transform="translate(586,505)" d="m0 0 4 2 10 10 7 8 11 9 7 6h-3l-4-2-5-1-10-9-4-5-1-4-12-13z" fill="#747F89"/>
<path transform="translate(656,1006)" d="m0 0h7l3 5v2l-3 1-1 2h-3l-1 3h-3v5h-5v-5l-4-1v-4l4 1 1-2h6v-2l-2-1z" fill="#A4ADB0"/>
<path transform="translate(778,222)" d="m0 0 2 2 3 11v74h-1l-1-61-2-3-1-13-2-6z" fill="#929CA1"/>
<path transform="translate(517,652)" d="m0 0 7 6 7 8 24 24-1 2-4-2-4-4v-2l-4-2-1-3h-2v-2h-2v-2l-4-2-5-5-4-5-7-6-1-3z" fill="#A5ACAE"/>
<path transform="translate(506 1e3)" d="m0 0 5 1v2l3-1 1 6-3 4h-2l-1-4-2 1v8l-2-3v-2l-4 2-2-1v-2h-2v-2l-2-1 5-3h3v-3z" fill="#A4ADB0"/>
<path transform="translate(265,1014)" d="m0 0 9 3 2 5-3 2h-21l2-3 3-1 2-5 2 2z" fill="#939DA3"/>
<path transform="translate(334,341)" d="m0 0 8 1 6 1-2 6-1 1-13 2v-2l-3-1-1-5 6-1z" fill="#A3ACAF"/>
<path transform="translate(370,464)" d="m0 0h42v1l-6 1-19 1-3 9h-2v-2l-3-1-3-4v-3l-6-1z" fill="#8B959C"/>
<path transform="translate(452,225)" d="m0 0h8l6 1v1h-9l-1 3-37 1-1-2 21-3z" fill="#4C5967"/>
<path transform="translate(343,310)" d="m0 0h22v1l-13 1-9-1zm-11 2h20l4 3-8 4-7-1-8-2 1-3z" fill="#9FA8AC"/>
<path transform="translate(663,1013)" d="m0 0h3l2 2 2 1v5l3 1-1 2h-17l-1-5 4-1 1-2h3z" fill="#ACB2B2"/>
<path transform="translate(489,998)" d="m0 0 1 2 7-1v3h2v4l-5-1-1 3-4-1-6 2-3-1-1-6-5-1 1-2 5 1h3l1 4 4-1z" fill="#A4ADB0"/>
<path transform="translate(436,186)" d="m0 0h16v1l-26 3-17 4-9 3-9 2-5 2-3-1 9-4h3v-2l16-3 9-3z" fill="#7B8792"/>
<path transform="translate(635,329)" d="m0 0h1v71h-1l-1-6-1-37-1-7v-10l2-3z" fill="#79858F"/>
<path transform="translate(381,250)" d="m0 0h7l3 2v8h-12l-3-3 2-4z" fill="#7B8792"/>
<path transform="translate(184,261)" d="m0 0 4 1 2-1v4l5 2 3 1 1-3 1 3-3 3-6 1v3h-7l1-4h-2v-2h2v-2h-2z" fill="#D1D1C9"/>
<path transform="translate(430,519)" d="m0 0m-36 1h3l2 3 9 1h10l8-4 4 1-4 1v2l-13 5-10-1-7-3v-2h-2z" fill="#8F99A0"/>
<path transform="translate(226,507)" d="m0 0h2l1 5v16l1 10-1 13-2 10v6h-2l1-25 1-10-1-10z" fill="#A4ADB0"/>
<path transform="translate(348,790)" d="m0 0 10 1-2 3-6 2h-12l-2-2 8-1-40-1v-1z" fill="#505D6C"/>
<path transform="translate(299,790)" d="m0 0 5 1 42 1-2 2h-10l-14 1h-12l-9-2-2-2z" fill="#455464"/>
<path transform="translate(534,208)" d="m0 0 4 1 14 8 12 9 11 9 4 4-1 2-5-4v-2l-6-2-11-9v-2l-5-2-10-7-7-4z" fill="#7E8A94"/>
<path transform="translate(579,498)" d="m0 0h2l9 11 10 11v3l-5-2-11-12-5-7z" fill="#A3A8A8"/>
<path transform="translate(297,186)" d="m0 0h52v1l-8 1-42 1-4 1v-3z" fill="#2D3A48"/>
<path transform="translate(355,526)" d="m0 0 5 1 16 9 15 7 13 4v10h-1v-8l-5-1-19-7-24-14z" fill="#677481"/>
<path transform="translate(457,847)" d="m0 0 5 1h4l1 3h9l2 4h-4v3l-4 1-3-3h2l-2-2-4 1-4-4-2 2-1-2z" fill="#CFD0C8"/>
<path transform="translate(226,571)" d="m0 0 3 2v2h-2l2 10-3 31-3 11-1-4 4-35z" fill="#A4ADB0"/>
<path transform="translate(156,950)" d="m0 0 7 1-1 4h-3v2l4-1 3 1v-2h-2v-2h3v-2h4l-1 10-1 2-2-1h-3-3l-1-3-5-2 1-2 1 1 1-3-2-1z" fill="#A4ACAD"/>
<path transform="translate(780,496)" d="m0 0h1l1 10h1v33l-3 4z" fill="#4C5A6A"/>
<path transform="translate(324,500)" d="m0 0 8 6 7 7 15 10 3 3-5-1-9-6-16-12-3-4z" fill="#848F98"/>
<path transform="translate(579,241)" d="m0 0 7 6 4 4v2h2l13 20-1 2-5-5v-4h-2l-9-12-8-9z" fill="#838E97"/>
<path transform="translate(398,846)" d="m0 0 6 2 2 4-4 2v-2l-6 1-4-1-1 2-5-2-1-3 6-1 4-1z" fill="#CFD0C8"/>
<path transform="translate(706,990)" d="m0 0h3l1 4h2l1 5h-2l-1 2 2 2h-2v5l-3 1-2-1v-5h2v-2h-2l1-3 3 2v-2h-2l-2-3-4-2h2v-2z" fill="#A4ADB0"/>
<path transform="translate(373,250)" d="m0 0h8l-2 1-2 6 2 3h-14l4-5v-2z" fill="#939DA3"/>
<path transform="translate(539,998)" d="m0 0h2l1 4 3 3-1 2h-4v2l3 1-5 1-4 1h-1v-5l1-1v-5l1 4 2-6z" fill="#A5ADB0"/>
<path transform="translate(501,236)" d="m0 0 16 8 4 3-1 2-6-2-16-8z" fill="#5F6D7C"/>
<path transform="translate(451,185)" d="m0 0 12 1 3 3v3l-16-2h-8l1-3 8-1z" fill="#ABB1B1"/>
<path transform="translate(609,1016)" d="m0 0 4 2 2 6h-16l-2-2h4l-1-3 9-1z" fill="#ABB2B2"/>
<path transform="translate(477,612)" d="m0 0 5 1 10 11 6 8h-3l-3-1-1-3-5-4v-2h-2l-4-6z" fill="#A1A9AB"/>
<path transform="translate(149,546)" d="m0 0 7 1 2 2-1 4h-3l-1-3v5l-4 1-2 3h-2v-4l2-1 1-5z" fill="#D0D0C8"/>
<path transform="translate(426,250)" d="m0 0h43v1l-28 1-5 5-2-1v-3l-12-1z" fill="#C2C4BF"/>
<path transform="translate(435,840)" d="m0 0 2 1-1 2 2 1v3l-5-1v2l-6 5-3 2-1-4-2-1 2-1 2-3h4 2v-4z" fill="#CDCDC6"/>
<path transform="translate(993,436)" d="m0 0 4 1 1 2v6l-5 2-6-1 1-3h2v-2h2l-1-3z" fill="#CCCDC6"/>
<path transform="translate(349,415)" d="m0 0h5l5 12 1 6h-3l-2-6-6-9z" fill="#869099"/>
<path transform="translate(999,440)" d="m0 0 1 3-1 4-3 1-1 3h-2v2h-2v3l-4 1-1-4 3-6 8-2z" fill="#D1D1C9"/>
<path transform="translate(341,402)" d="m0 0 8 1 2 5v6h-2l-2 4-3-9z" fill="#A4ADB0"/>
<path transform="translate(618,537)" d="m0 0 4 2 3 2v2l3 1 4 4 4 3-1 3-6-4-13-11z" fill="#919BA1"/>
<path transform="translate(645,224)" d="m0 0 2 4 1 12 1 2-2 8h-2l-1-6v-16z" fill="#616E7D"/>
<path transform="translate(452,404)" d="m0 0h29l-3 4h-3v-2h-6l-2 2v-2h-2l-1 2h-2l-1-2-5 2-4-2z" fill="#ACB3B2"/>
<path transform="translate(299,188)" d="m0 0h14l2 3-22 2-6 1 2-3z" fill="#4E5C6B"/>
<path transform="translate(446,577)" d="m0 0 7 6 8 9 3 6 4 4v2h-2l-4-5-2-1-3-6v-2l-4-1-3-4v-3h-2z" fill="#AAB1B1"/>
<path transform="translate(614,841)" d="m0 0 6 3 17 3-1 3-17-2-5-3z" fill="#A4ADB0"/>
<path transform="translate(655,789)" d="m0 0 10 1 4 1 19 1-1 2h-19l-3 1-4-3h-8l-1-2z" fill="#4F5C6A"/>
<path transform="translate(406,435)" d="m0 0h5l-3 1 4 8h-12l3-8z" fill="#A4ADB0"/>
<path transform="translate(661,193)" d="m0 0 2 1-3 1-1 3h-2l-2 4-3 1-1 7-3 5h-2l1-6 2-5 6-7z" fill="#3E4C5B"/>
<path transform="translate(527 1e3)" d="m0 0 4 2v4l-2 2v3l-4 2v-3h2l-1-2h-5l-2-2v-3l6-1z" fill="#A4ADB0"/>
<path transform="translate(751,797)" d="m0 0 1 3-6 12-1 3h-2l-1-6 3-4v-2l-2-2 6-1z" fill="#D1D1C9"/>
<path transform="translate(226,467)" d="m0 0h1v13h2l-1 20-1 5h-1z" fill="#A4ADB0"/>
<path transform="translate(367,255)" d="m0 0 3 1-3 3 40 1 1-3 1 4h-47z" fill="#B0B5B4"/>
<path transform="translate(384,793)" d="m0 0h1v8l-3 6v3l-4-1-1-3 4-9z" fill="#D1D1C9"/>
<path transform="translate(336,415)" d="m0 0 3 1 4 6 3 5 1 7-2 1-9-17-2-2z" fill="#D1D1C9"/>
<path transform="translate(486,251)" d="m0 0 3 2 1 8-3 1h-15v-1l11-1v-5z" fill="#929BA1"/>
<path transform="translate(605,275)" d="m0 0 4 4 1 4h2l4 8 4 11v3h-2l-6-16-4-5z" fill="#76828E"/>
<path transform="translate(217,668)" d="m0 0h1l1 10-1 2-1 10-1 1-1 7-2-2-1-4 4-13z" fill="#A4ADB0"/>
<path transform="translate(524,714)" d="m0 0 6 5 4 5v2h2v3l2 1 2 8-6-5-3-8-7-9z" fill="#A4ADB0"/>
<path transform="translate(331,18)" d="m0 0 4 1v2l2 1 1 3 2-2 1 3-2 1v2l3 2-5 1-3-2 3-1v-2l-3 1-3-1v-2h3v-2l-3-1z" fill="#AFB5B4"/>
<path transform="translate(629,774)" d="m0 0h7l5 3 4 5-7-1-8-5z" fill="#838E98"/>
<path transform="translate(55,844)" d="m0 0 4 2v2 3h2v4h-2v2l-2-1-1-4-2-1v-6zm0 8m-3 1 3 1-4 1z" fill="#A5ACAD"/>
<path transform="translate(547,275)" d="m0 0 8 6 1 3-1 3-7-1 1-2z" fill="#455464"/>
<path transform="translate(547,697)" d="m0 0 7 6 10 10-3 2-3-3v-2h-2l-4-5v-2l-5-2z" fill="#6B7987"/>
<path transform="translate(421,593)" d="m0 0 9 6 7 8 1 3-4-1-4-6-7-5z" fill="#A4ADB0"/>
<path transform="translate(418,547)" d="m0 0 5 1 5 9 3 4-5-2-7-8z" fill="#969FA3"/>
<path transform="translate(395,194)" d="m0 0h12l-2 2-14 3-5 2-3-1 9-4h3z" fill="#A0A8AA"/>
<path transform="translate(674,188)" d="m0 0h6l-3 1 1 3h-3v2l-10 3h-3l5-3 3-2 1-3z" fill="#63707E"/>
<path transform="translate(520,247)" d="m0 0 5 2 6 5 1 4 4 3-1 2-7-6-5-5-3-2z" fill="#4A5867"/>
<path transform="translate(877,667)" d="m0 0h3l-1 12h-2l-4-5v-3l1-3z" fill="#CFCFC8"/>
<path transform="translate(431,515)" d="m0 0 8 4 1 3-16-1 4-4z" fill="#7F8B95"/>
<path transform="translate(492,436)" d="m0 0h3l2 2v7l-7-1-1-4z" fill="#A3ACAE"/>
<path transform="translate(348,19)" d="m0 0 3 1v2h5l1 5-4 2v-2l-6-1 2-4z" fill="#CECFC7"/>
<path transform="translate(900,621)" d="m0 0 4 2-4 7-6 1v-3h2l1-4h2z" fill="#D1D1C9"/>
<path transform="translate(454,539)" d="m0 0 6 5 2 4v4h-6v-8z" fill="#556373"/>
<path transform="translate(452,251)" d="m0 0h14v3 2h-8l-3-3z" fill="#929BA2"/>
<path transform="translate(271,409)" d="m0 0 2 2 4 18-2 2-4-16z" fill="#74818C"/>
<path transform="translate(778,222)" d="m0 0 2 2 3 11-1 4v-3h-2l-4-8z" fill="#919BA2"/>
<path transform="translate(457,187)" d="m0 0h12l8 2-1 2-7 1-3-1-1-2-8-1z" fill="#9BA3A7"/>
<path transform="translate(376,783)" d="m0 0 2 2h-2l-2 4-5 5-5 2 3-5 3-2 2-4z" fill="#798691"/>
<path transform="translate(506,640)" d="m0 0 5 5 6 7h-4l-7-7-1-3z" fill="#A8AEAF"/>
<path transform="translate(422,252)" d="m0 0h14l-2 1 3 2 2-1-2 5-4 1-1-5 1-2h-2l-1 2v-2h-2l-1 2-5-2z" fill="#9AA3A8"/>
<path transform="translate(341,18)" d="m0 0 5 2 1 2-4-1 1 3-2 3h-2v2l2 1-4-1 1-3h2l-3-4v-2h3z" fill="#CCCDC6"/>
<path transform="translate(742,787)" d="m0 0h2v3l-8 6h-4v-2l4-4 3-2z" fill="#74818D"/>
<path transform="translate(586,505)" d="m0 0 4 2 10 10 4 6h-4l-3-5-11-12z" fill="#4E5B68"/>
<path transform="translate(291,463)" d="m0 0h2l7 10 4 6h-3l-9-12z" fill="#8A959D"/>
<path transform="translate(575 1e3)" d="m0 0 1 2h2v-2l6 1-2 6-2-2h-4l-1 2-1-6z" fill="#A4ADB0"/>
<path transform="translate(906,592)" d="m0 0 3 1 1 5-5 3-5-1 3-3h2z" fill="#AEB4B3"/>
<path transform="translate(916,573)" d="m0 0 2 2v7l-2 4-6-1 4-2 3-4h-2v-2h-2v-2z" fill="#AEB4B3"/>
<path transform="translate(1022,402)" d="m0 0h1v7l-4 1v2l-5-1v-2l4-2z" fill="#CCCDC6"/>
<path transform="translate(506,749)" d="m0 0 4 4 3 5v3l-4-2-3-3z" fill="#AEB4B3"/>
<path transform="translate(454,541)" d="m0 0 3 3v6l-1 2-5 1 2-5z" fill="#86919A"/>
<path transform="translate(477,189)" d="m0 0 10 1v4l-11-1z" fill="#A8AFAF"/>
<path transform="translate(446,251)" d="m0 0 10 1-1 6-6-3z" fill="#9FA7AA"/>
<path transform="translate(512,700)" d="m0 0 8 6 1 4h2l1 3-5-2-2-1-3-6z" fill="#A4ADB0"/>
<path transform="translate(209,186)" d="m0 0 5 1v5l-5 1-1-4h-2v-2z" fill="#AEB4B3"/>
<path transform="translate(156,950)" d="m0 0 7 1-1 4h-3v2l3 1h-6v-3l1 1 1-3-2-1z" fill="#ADB3B2"/>
<path transform="translate(539,821)" d="m0 0 4 4-2 11-3 1-1-3h2l1-9z" fill="#D1D1C9"/>
<path transform="translate(330,374)" d="m0 0h4l1 4 4 3-3 4-3-4-1-4-2-1-1 3z" fill="#A2ABAF"/>
<path transform="translate(531,254)" d="m0 0 8 6 2 3-4 1-5-5z" fill="#5F6C7B"/>
<path transform="translate(210,711)" d="m0 0 3 2-4 16-1-3v-7z" fill="#A4ADB0"/>
<path transform="translate(461,593)" d="m0 0 7 6 5 6-5-1-7-9z" fill="#808B95"/>
<path transform="translate(594,514)" d="m0 0 5 5 1 4-5-2-3-4v-2z" fill="#A0A8AA"/>
<path transform="translate(611,1009)" d="m0 0h3l2 4 2 2-4 1-1 2-3-5z" fill="#AEB4B3"/>
<path transform="translate(153,949)" d="m0 0 5 2 1 3-2 3-6-3v-3z" fill="#9DA5A8"/>
<path transform="translate(493,853)" d="m0 0 4 4-1 4-6-2-1-3 4-1z" fill="#CACBC4"/>
<path transform="translate(1,730)" d="m0 0 3 4-1 5 2 6-3 2-1-2z" fill="#909AA1"/>
<path transform="translate(489,623)" d="m0 0 3 1 6 8h-3l-3-1-1-3-3-3z" fill="#AAB0B0"/>
<path transform="translate(645,224)" d="m0 0 2 4 1 12-3 2z" fill="#727F8C"/>
<path transform="translate(534,208)" d="m0 0 4 1 14 8 1 2-5-1-9-6z" fill="#7C8893"/>
<path transform="translate(426,189)" d="m0 0h6l-1 2-2-1-1 2-15 1 3-2z" fill="#ACB2B1"/>
<path transform="translate(167,951)" d="m0 0h4l-1 10-1 2-2-1-3-1 3-3 2 1z" fill="#AEB4B3"/>
<path transform="translate(476,694)" d="m0 0 3 1 2 11v2h-2l-3-9-1-4z" fill="#AEB4B3"/>
<path transform="translate(920,537)" d="m0 0 5 3 1 2 3 1-2 1-1 3-4-2 1-4-3-1z" fill="#AEB4B3"/>
<path transform="translate(355,526)" d="m0 0 5 1 12 7-1 2-16-9z" fill="#667481"/>
<path transform="translate(479,464)" d="m0 0h1v12h-4l2-11z" fill="#606E7C"/>
<path transform="translate(500,403)" d="m0 0 2 1 2 10-4 1z" fill="#647280"/>
<path transform="translate(650,1013)" d="m0 0 3 3-1 3h-5l-2-4 3-1 2 1z" fill="#A6AEB0"/>
<path transform="translate(452,654)" d="m0 0h2l8 14-1 2-4-5v-3h-2z" fill="#AEB4B3"/>
<path transform="translate(409,504)" d="m0 0h8l10 5 1 2-6-2-7-3-6-1z" fill="#495766"/>
<path transform="translate(367,255)" d="m0 0 3 1-3 3 11 1v1h-16z" fill="#ACB2B2"/>
<path transform="translate(565,228)" d="m0 0 4 2 10 9-1 2-5-4v-2l-4-2z" fill="#6E7B88"/>
<path transform="translate(573,1014)" d="m0 0 2 1-1 7-2-1-4-1v-3z" fill="#A4ADB0"/>
<path transform="translate(228,1014)" d="m0 0h5l-3 2 2 1-1 3-3 1h-3l1-5z" fill="#AEB4B3"/>
<path transform="translate(399,849)" d="m0 0 7 2-3 3-1-2-6 1-3-2z" fill="#AEB4B3"/>
<path transform="translate(446,577)" d="m0 0 7 6 3 4h-4l-2-2v-3h-2z" fill="#9FA7AA"/>
<path transform="translate(396,497)" d="m0 0 4 2 9 4-4 2-5-2-4-4z" fill="#455464"/>
<path transform="translate(614,289)" d="m0 0 2 2 4 11v3h-2l-4-11z" fill="#828E97"/>
<path transform="translate(625,541)" d="m0 0 4 2 10 9h-3l-8-6-3-3z" fill="#74808D"/>
<path transform="translate(776,217)" d="m0 0 3 4-1 6-3-1-1-6z" fill="#A0A9AC"/>
<path transform="translate(344,519)" d="m0 0 5 1 8 5-3 1-10-6z" fill="#77838E"/>
<path transform="translate(1016,388)" d="m0 0 5 1-2 1 3 5v2l-4-1z" fill="#AEB4B3"/>
<path transform="translate(246,244)" d="m0 0h2v16h-1v-11h-3v-3h2z" fill="#A6AFB0"/>
<path transform="translate(430,519)" d="m0 0m-4 1 4 1-4 1v2l-5 2-3-1z" fill="#909AA1"/>
<path transform="translate(994,440)" d="m0 0 1 3-2 4-6-1 1-3 4-1 1 3z" fill="#B0B6B4"/>
<path transform="translate(543,343)" d="m0 0 2 3 4 5-1 4-6-9z" fill="#435060"/>
<path transform="translate(184,255)" d="m0 0 5 1-1 5h-3z" fill="#CBCCC5"/>
<path transform="translate(579,241)" d="m0 0 7 6 4 4-1 2-9-8z" fill="#798590"/>
</svg>
